<svg width="25" height="25" viewBox="0 0 25 25" fill="none" xmlns="http://www.w3.org/2000/svg">
<path fill-rule="evenodd" clip-rule="evenodd" d="M8.75 7.50151L8.75 6.5C8.75 4.42893 10.4289 2.75 12.5 2.75C14.5711 2.75 16.25 4.42893 16.25 6.5V7.5L16.25 7.50151C18.9344 7.5136 20.3606 7.6222 21.1606 8.59803C22.0608 9.69607 21.7287 11.3563 21.0646 14.6767L20.4646 17.6767C20.0029 19.9856 19.772 21.1401 18.9425 21.82C18.1131 22.5 16.9358 22.5 14.5812 22.5H10.4188C8.06417 22.5 6.88686 22.5 6.05742 21.82C5.22799 21.1401 4.9971 19.9856 4.53532 17.6767L3.93532 14.6767C3.27123 11.3563 2.93919 9.69607 3.83936 8.59803C4.63936 7.62219 6.06562 7.5136 8.75 7.50151ZM10.25 6.5C10.25 5.25736 11.2574 4.25 12.5 4.25C13.7426 4.25 14.75 5.25736 14.75 6.5V7.5H10.25V6.5ZM15.5 11.5C16.0523 11.5 16.5 11.0523 16.5 10.5C16.5 9.94772 16.0523 9.5 15.5 9.5C14.9477 9.5 14.5 9.94772 14.5 10.5C14.5 11.0523 14.9477 11.5 15.5 11.5ZM10.5 10.5C10.5 11.0523 10.0523 11.5 9.49998 11.5C8.94769 11.5 8.49998 11.0523 8.49998 10.5C8.49998 9.94772 8.94769 9.5 9.49998 9.5C10.0523 9.5 10.5 9.94772 10.5 10.5Z" fill="white"/>
</svg>
