<svg width="26" height="26" viewBox="0 0 26 26" fill="none" xmlns="http://www.w3.org/2000/svg">
<path d="M16.25 11.9167C16.8483 11.9167 17.3334 11.4317 17.3334 10.8334C17.3334 10.235 16.8483 9.75002 16.25 9.75002C15.6517 9.75002 15.1667 10.235 15.1667 10.8334C15.1667 11.4317 15.6517 11.9167 16.25 11.9167Z" fill="#0D1217"/>
<path d="M10.8334 10.8334C10.8334 11.4317 10.3483 11.9167 9.75004 11.9167C9.15173 11.9167 8.66671 11.4317 8.66671 10.8334C8.66671 10.235 9.15173 9.75002 9.75004 9.75002C10.3483 9.75002 10.8334 10.235 10.8334 10.8334Z" fill="#0D1217"/>
<path fill-rule="evenodd" clip-rule="evenodd" d="M8.93754 5.71533V5.41669C8.93754 3.17303 10.7564 1.35419 13 1.35419C15.2437 1.35419 17.0625 3.17303 17.0625 5.41669V5.71533C17.7758 5.7374 18.411 5.77701 18.9746 5.84805C20.2759 6.0121 21.3293 6.35724 22.143 7.15197C22.4145 7.41713 22.6559 7.71151 22.8626 8.02974C23.4823 8.98353 23.6142 10.0841 23.5198 11.3924C23.4275 12.6728 23.106 14.2803 22.698 16.3202L22.6773 16.4238C22.3941 17.8396 22.1688 18.9664 21.89 19.8528C21.6028 20.7657 21.236 21.5039 20.6225 22.1018C20.4115 22.3075 20.1832 22.4946 19.9402 22.6612C19.2335 23.1456 18.4378 23.3604 17.4862 23.463C16.5624 23.5625 15.4133 23.5625 13.9695 23.5625H12.0308C10.5869 23.5625 9.43784 23.5625 8.514 23.463C7.56245 23.3604 6.76669 23.1456 6.06004 22.6612C5.817 22.4946 5.58871 22.3075 5.3777 22.1018C4.76418 21.5039 4.39744 20.7657 4.11026 19.8528C3.83144 18.9664 3.6061 17.8396 3.32294 16.4238L3.30228 16.3205C2.89425 14.2804 2.57272 12.6728 2.48037 11.3924C2.38602 10.0841 2.51787 8.98353 3.13758 8.02974C3.34434 7.71151 3.58568 7.41713 3.85718 7.15197C4.67091 6.35724 5.72429 6.0121 7.02565 5.84805C7.58917 5.77702 8.2243 5.73741 8.93754 5.71533ZM10.5625 5.41669C10.5625 4.07049 11.6538 2.97919 13 2.97919C14.3462 2.97919 15.4375 4.07049 15.4375 5.41669V5.6899C14.978 5.68751 14.4928 5.68752 13.981 5.68752H12.0192C11.5073 5.68752 11.0221 5.68751 10.5625 5.6899V5.41669ZM4.99257 8.31451C5.44155 7.87602 6.08454 7.60455 7.22889 7.46029C8.38903 7.31405 9.92587 7.31252 12.0777 7.31252H13.9225C16.0743 7.31252 17.6112 7.31405 18.7713 7.46029C19.9157 7.60455 20.5587 7.87602 21.0076 8.31451C21.1934 8.49594 21.3585 8.69735 21.5 8.91509C21.8419 9.44135 21.982 10.1251 21.8991 11.2755C21.8149 12.4418 21.515 13.9491 21.093 16.0591C20.7986 17.5313 20.5893 18.572 20.3398 19.3652C20.0957 20.1413 19.8362 20.599 19.4883 20.9381C19.344 21.0788 19.1878 21.2069 19.0215 21.3208C18.6208 21.5955 18.121 21.7601 17.3121 21.8473C16.4854 21.9364 15.4239 21.9375 13.9225 21.9375H12.0777C10.5763 21.9375 9.51479 21.9364 8.68813 21.8473C7.8792 21.7601 7.37945 21.5955 6.97874 21.3208C6.81245 21.2069 6.65625 21.0788 6.51188 20.9381C6.16398 20.599 5.90452 20.1413 5.66038 19.3652C5.41089 18.572 5.20163 17.5313 4.90719 16.0591C4.48518 13.9491 4.18528 12.4418 4.10116 11.2755C4.01819 10.1251 4.15829 9.44135 4.50021 8.91509C4.64169 8.69736 4.80681 8.49594 4.99257 8.31451Z" fill="#0D1217"/>
</svg>
