<svg width="25" height="24" viewBox="0 0 25 24" fill="none" xmlns="http://www.w3.org/2000/svg">
<path fill-rule="evenodd" clip-rule="evenodd" d="M12.375 1.25C8.09483 1.25 4.62504 4.71979 4.62504 9V9.7041C4.62504 10.401 4.41875 11.0824 4.03217 11.6622L2.88356 13.3851C1.55047 15.3848 2.56818 18.1028 4.88677 18.7351C5.64238 18.9412 6.40437 19.1155 7.17078 19.2581L7.17268 19.2632C7.94167 21.3151 9.99698 22.75 12.375 22.75C14.753 22.75 16.8083 21.3151 17.5773 19.2632L17.5792 19.2581C18.3456 19.1155 19.1077 18.9412 19.8633 18.7351C22.1819 18.1028 23.1996 15.3848 21.8665 13.3851L20.7179 11.6622C20.3313 11.0824 20.125 10.401 20.125 9.7041V9C20.125 4.71979 16.6552 1.25 12.375 1.25ZM15.7514 19.537C13.5085 19.805 11.2414 19.8049 8.99849 19.5369C9.70944 20.5585 10.946 21.25 12.375 21.25C13.8039 21.25 15.0405 20.5585 15.7514 19.537ZM6.12504 9C6.12504 5.54822 8.92326 2.75 12.375 2.75C15.8268 2.75 18.625 5.54822 18.625 9V9.7041C18.625 10.6972 18.919 11.668 19.4698 12.4943L20.6184 14.2172C21.3836 15.3649 20.7995 16.925 19.4686 17.288C14.8244 18.5546 9.9257 18.5546 5.28144 17.288C3.95061 16.925 3.36647 15.3649 4.13164 14.2172L5.28024 12.4943C5.83109 11.668 6.12504 10.6972 6.12504 9.7041V9Z" fill="#ABB7C2"/>
</svg>
