<svg width="20" height="20" viewBox="0 0 20 20" fill="none" xmlns="http://www.w3.org/2000/svg">
<path d="M14.6484 3.69301L12.9818 2.81839C11.5187 2.05063 10.7872 1.66675 10.0003 1.66675C9.21343 1.66675 8.48192 2.05063 7.0189 2.81839L6.7508 2.95908L14.1867 7.20814L17.5339 5.53452C16.9954 4.92466 16.1265 4.4687 14.6484 3.69301Z" fill="#BABDC1"/>
<path d="M18.124 6.63704L14.792 8.30302V10.8334C14.792 11.1786 14.5122 11.4584 14.167 11.4584C13.8218 11.4584 13.542 11.1786 13.542 10.8334V8.92802L10.6253 10.3864V18.2534C11.2236 18.1044 11.9043 17.7472 12.9817 17.1818L14.6484 16.3071C16.4415 15.3662 17.338 14.8957 17.8358 14.0503C18.3337 13.2049 18.3337 12.1529 18.3337 10.0488V9.95134C18.3337 8.37413 18.3337 7.38806 18.124 6.63704Z" fill="#BABDC1"/>
<path d="M9.37533 18.2534V10.3864L1.87669 6.63704C1.66699 7.38806 1.66699 8.37412 1.66699 9.95134V10.0488C1.66699 12.1529 1.66699 13.2049 2.16482 14.0503C2.66265 14.8957 3.55918 15.3662 5.35222 16.3071L7.0189 17.1818C8.09636 17.7472 8.77706 18.1044 9.37533 18.2534Z" fill="#BABDC1"/>
<path d="M2.46674 5.53452L10.0003 9.30131L12.843 7.88L5.43746 3.64829L5.35224 3.69301C3.87411 4.4687 3.00524 4.92466 2.46674 5.53452Z" fill="#BABDC1"/>
</svg>
