<svg width="20" height="20" viewBox="0 0 20 20" fill="none" xmlns="http://www.w3.org/2000/svg">
<path fill-rule="evenodd" clip-rule="evenodd" d="M8.71728 1.04199H11.2829C12.619 1.04199 13.6665 1.04198 14.5033 1.12155C15.3563 1.20265 16.0547 1.3708 16.6704 1.74809C17.3151 2.14319 17.8572 2.68528 18.2523 3.33002C18.6296 3.9457 18.7978 4.64412 18.8789 5.49708C18.9584 6.3339 18.9584 7.38137 18.9584 8.71752V9.60686C18.9584 10.5579 18.9584 11.3036 18.9173 11.906C18.8755 12.5189 18.7891 13.029 18.5937 13.5007C18.1073 14.6748 17.1745 15.6076 16.0004 16.0939C15.3296 16.3718 14.5656 16.4334 13.5195 16.4514C13.1536 16.4577 12.9218 16.4624 12.7451 16.4819C12.5801 16.5002 12.5161 16.527 12.4786 16.5488C12.4391 16.5718 12.3853 16.6136 12.2918 16.7419C12.1907 16.8806 12.0764 17.0724 11.8952 17.3785L11.4435 18.1418C10.7988 19.2309 9.2013 19.2309 8.55666 18.1418L8.10491 17.3785C7.9237 17.0724 7.80943 16.8806 7.70829 16.7419C7.61485 16.6136 7.56102 16.5718 7.52152 16.5488C7.48407 16.527 7.42007 16.5002 7.25498 16.4819C7.07831 16.4624 6.84654 16.4577 6.48063 16.4514C5.43456 16.4334 4.67053 16.3718 3.99972 16.0939C2.82563 15.6076 1.89282 14.6748 1.40649 13.5007C1.21111 13.029 1.12466 12.5189 1.08284 11.906C1.04174 11.3036 1.04175 10.5579 1.04175 9.60686L1.04175 8.71753C1.04174 7.38137 1.04174 6.3339 1.1213 5.49708C1.2024 4.64412 1.37056 3.9457 1.74785 3.33002C2.14295 2.68528 2.68503 2.14319 3.32978 1.74809C3.94546 1.3708 4.64388 1.20265 5.49684 1.12155C6.33366 1.04198 7.38113 1.04199 8.71728 1.04199ZM5.61515 2.36594C4.85369 2.43834 4.36917 2.57718 3.9829 2.81389C3.50635 3.10592 3.10568 3.50659 2.81365 3.98314C2.57694 4.36941 2.43809 4.85394 2.36569 5.6154C2.29241 6.38616 2.29175 7.37429 2.29175 8.75033V9.58366C2.29175 10.5629 2.29209 11.2661 2.32994 11.8209C2.36742 12.3702 2.43956 12.7283 2.56134 13.0223C2.9208 13.8901 3.61027 14.5796 4.47808 14.9391C4.90777 15.1171 5.45597 15.1836 6.50216 15.2016L6.52868 15.2021C6.86035 15.2078 7.15099 15.2128 7.39256 15.2395C7.65213 15.2683 7.906 15.3264 8.14997 15.4683C8.39187 15.609 8.56636 15.7969 8.71846 16.0056C8.85901 16.1985 9.00346 16.4425 9.16705 16.7189L9.63235 17.5051C9.79298 17.7764 10.2071 17.7764 10.3678 17.5051L10.8331 16.7189C10.9967 16.4425 11.1411 16.1985 11.2817 16.0056C11.4338 15.7969 11.6083 15.609 11.8502 15.4683C12.0941 15.3264 12.348 15.2683 12.6076 15.2395C12.8491 15.2128 13.1398 15.2078 13.4714 15.2021L13.498 15.2016C14.5442 15.1836 15.0924 15.1171 15.5221 14.9391C16.3899 14.5796 17.0794 13.8901 17.4388 13.0223C17.5606 12.7283 17.6327 12.3702 17.6702 11.8209C17.7081 11.2661 17.7084 10.5629 17.7084 9.58366V8.75033C17.7084 7.37429 17.7078 6.38616 17.6345 5.6154C17.5621 4.85394 17.4232 4.36941 17.1865 3.98314C16.8945 3.50659 16.4938 3.10592 16.0173 2.81389C15.631 2.57718 15.1465 2.43834 14.385 2.36594C13.6142 2.29265 12.6261 2.29199 11.2501 2.29199H8.75008C7.37405 2.29199 6.38592 2.29265 5.61515 2.36594Z" fill="#0D1217"/>
<path d="M7.50008 9.16699C7.50008 9.62723 7.12699 10.0003 6.66675 10.0003C6.20651 10.0003 5.83341 9.62723 5.83341 9.16699C5.83341 8.70676 6.20651 8.33366 6.66675 8.33366C7.12699 8.33366 7.50008 8.70676 7.50008 9.16699Z" fill="#0D1217"/>
<path d="M10.8334 9.16699C10.8334 9.62723 10.4603 10.0003 10.0001 10.0003C9.53984 10.0003 9.16675 9.62723 9.16675 9.16699C9.16675 8.70676 9.53984 8.33366 10.0001 8.33366C10.4603 8.33366 10.8334 8.70676 10.8334 9.16699Z" fill="#0D1217"/>
<path d="M14.1667 9.16699C14.1667 9.62723 13.7937 10.0003 13.3334 10.0003C12.8732 10.0003 12.5001 9.62723 12.5001 9.16699C12.5001 8.70676 12.8732 8.33366 13.3334 8.33366C13.7937 8.33366 14.1667 8.70676 14.1667 9.16699Z" fill="#0D1217"/>
</svg>
