<svg width="26" height="26" viewBox="0 0 26 26" fill="none" xmlns="http://www.w3.org/2000/svg">
<path fill-rule="evenodd" clip-rule="evenodd" d="M11.3324 1.354H14.6677C16.4047 1.354 17.7664 1.35399 18.8542 1.45743C19.9631 1.56286 20.871 1.78145 21.6714 2.27193C22.5096 2.78556 23.2143 3.49027 23.7279 4.32844C24.2184 5.12883 24.437 6.03677 24.5424 7.14562C24.6459 8.23349 24.6459 9.59519 24.6459 11.3322V12.4883C24.6459 13.7247 24.6459 14.6941 24.5924 15.4772C24.5381 16.274 24.4257 16.9371 24.1717 17.5503C23.5395 19.0766 22.3268 20.2893 20.8005 20.9215C19.9284 21.2827 18.9352 21.3629 17.5753 21.3863C17.0996 21.3945 16.7983 21.4005 16.5686 21.4259C16.354 21.4497 16.2708 21.4845 16.2221 21.5128C16.1708 21.5427 16.1008 21.5972 15.9793 21.7638C15.8478 21.9442 15.6993 22.1935 15.4637 22.5915L14.8764 23.5837C14.0384 24.9995 11.9616 24.9995 11.1236 23.5837L10.5363 22.5915C10.3007 22.1935 10.1522 21.9442 10.0207 21.7638C9.89921 21.5972 9.82924 21.5427 9.77788 21.5128C9.7292 21.4845 9.64601 21.4497 9.43139 21.4259C9.20171 21.4005 8.90042 21.3945 8.42473 21.3863C7.06484 21.3629 6.07161 21.2827 5.19955 20.9215C3.67323 20.2893 2.46058 19.0766 1.82835 17.5503C1.57435 16.9371 1.46197 16.274 1.40761 15.4772C1.35418 14.6941 1.35418 13.7247 1.35419 12.4883L1.35419 11.3322C1.35418 9.5952 1.35417 8.23349 1.45761 7.14562C1.56304 6.03677 1.78164 5.12883 2.27212 4.32844C2.78575 3.49027 3.49045 2.78556 4.32862 2.27193C5.12901 1.78145 6.03696 1.56286 7.1458 1.45743C8.23367 1.35399 9.59538 1.354 11.3324 1.354ZM7.29961 3.07513C6.30972 3.16925 5.67984 3.34975 5.17768 3.65747C4.55817 4.03711 4.0373 4.55798 3.65766 5.1775C3.34994 5.67965 3.16943 6.30953 3.07531 7.29943C2.98004 8.30142 2.97919 9.586 2.97919 11.3748V12.4582C2.97919 13.7312 2.97963 14.6453 3.02884 15.3666C3.07756 16.0806 3.17134 16.5462 3.32966 16.9284C3.79695 18.0566 4.69326 18.9529 5.82142 19.4202C6.38002 19.6516 7.09267 19.7381 8.45273 19.7615L8.4872 19.7621C8.91836 19.7695 9.2962 19.776 9.61024 19.8108C9.94769 19.8482 10.2777 19.9237 10.5949 20.1082C10.9094 20.2911 11.1362 20.5354 11.3339 20.8067C11.5166 21.0574 11.7044 21.3747 11.9171 21.734L12.522 22.756C12.7308 23.1088 13.2692 23.1088 13.478 22.756L14.0829 21.734C14.2956 21.3747 14.4834 21.0574 14.6661 20.8067C14.8638 20.5354 15.0906 20.2911 15.4051 20.1082C15.7223 19.9237 16.0523 19.8482 16.3898 19.8108C16.7038 19.776 17.0816 19.7695 17.5128 19.7621L17.5473 19.7615C18.9073 19.7381 19.62 19.6516 20.1786 19.4202C21.3068 18.9529 22.2031 18.0566 22.6704 16.9284C22.8287 16.5462 22.9225 16.0806 22.9712 15.3666C23.0204 14.6453 23.0209 13.7312 23.0209 12.4582V11.3748C23.0209 9.586 23.02 8.30142 22.9247 7.29943C22.8306 6.30953 22.6501 5.67965 22.3424 5.1775C21.9627 4.55798 21.4419 4.03711 20.8224 3.65747C20.3202 3.34975 19.6903 3.16925 18.7004 3.07513C17.6984 2.97986 16.4139 2.979 14.625 2.979H11.375C9.58618 2.979 8.3016 2.97986 7.29961 3.07513Z" fill="#007AFF"/>
<path d="M9.75002 11.9165C9.75002 12.5148 9.265 12.9998 8.66669 12.9998C8.06838 12.9998 7.58335 12.5148 7.58335 11.9165C7.58335 11.3182 8.06838 10.8332 8.66669 10.8332C9.265 10.8332 9.75002 11.3182 9.75002 11.9165Z" fill="#007AFF"/>
<path d="M14.0834 11.9165C14.0834 12.5148 13.5983 12.9998 13 12.9998C12.4017 12.9998 11.9167 12.5148 11.9167 11.9165C11.9167 11.3182 12.4017 10.8332 13 10.8332C13.5983 10.8332 14.0834 11.3182 14.0834 11.9165Z" fill="#007AFF"/>
<path d="M18.4167 11.9165C18.4167 12.5148 17.9317 12.9998 17.3334 12.9998C16.735 12.9998 16.25 12.5148 16.25 11.9165C16.25 11.3182 16.735 10.8332 17.3334 10.8332C17.9317 10.8332 18.4167 11.3182 18.4167 11.9165Z" fill="#007AFF"/>
</svg>
