<svg width="91" height="91" viewBox="0 0 91 91" fill="none" xmlns="http://www.w3.org/2000/svg">
<path fill-rule="evenodd" clip-rule="evenodd" d="M83.4166 45.5002C83.4166 66.4409 66.4408 83.4168 45.5 83.4168C24.5592 83.4168 7.58331 66.4409 7.58331 45.5002C7.58331 24.5594 24.5592 7.5835 45.5 7.5835C66.4408 7.5835 83.4166 24.5594 83.4166 45.5002ZM60.7816 34.0102C61.8922 35.1207 61.8922 36.9213 60.7816 38.0318L41.8233 56.9902C40.7128 58.1007 38.9122 58.1007 37.8016 56.9902L30.2183 49.4068C29.1078 48.2963 29.1078 46.4957 30.2183 45.3852C31.3289 44.2746 33.1294 44.2746 34.24 45.3852L39.8125 50.9577L48.2862 42.4839L56.76 34.0102C57.8705 32.8996 59.6711 32.8996 60.7816 34.0102Z" fill="#22AD5C"/>
</svg>
