<svg width="20" height="20" viewBox="0 0 20 20" fill="none" xmlns="http://www.w3.org/2000/svg">
<path fill-rule="evenodd" clip-rule="evenodd" d="M18.3337 10.0001C18.3337 14.6025 14.6027 18.3334 10.0003 18.3334C5.39795 18.3334 1.66699 14.6025 1.66699 10.0001C1.66699 5.39771 5.39795 1.66675 10.0003 1.66675C14.6027 1.66675 18.3337 5.39771 18.3337 10.0001ZM13.3589 7.47481C13.603 7.71888 13.603 8.11461 13.3589 8.35869L9.19227 12.5254C8.94819 12.7694 8.55246 12.7694 8.30838 12.5254L6.64172 10.8587C6.39764 10.6146 6.39764 10.2189 6.64172 9.97481C6.88579 9.73073 7.28152 9.73073 7.5256 9.97481L8.75033 11.1995L10.6127 9.33717L12.475 7.47481C12.7191 7.23073 13.1149 7.23073 13.3589 7.47481Z" fill="#BABDC1"/>
</svg>
