<svg width="20" height="20" viewBox="0 0 20 20" fill="none" xmlns="http://www.w3.org/2000/svg">
<path fill-rule="evenodd" clip-rule="evenodd" d="M9.99996 2.2915C5.74276 2.2915 2.29163 5.74264 2.29163 9.99984C2.29163 14.257 5.74276 17.7082 9.99996 17.7082C14.2572 17.7082 17.7083 14.257 17.7083 9.99984C17.7083 5.74264 14.2572 2.2915 9.99996 2.2915ZM1.04163 9.99984C1.04163 5.05229 5.05241 1.0415 9.99996 1.0415C14.9475 1.0415 18.9583 5.05229 18.9583 9.99984C18.9583 14.9474 14.9475 18.9582 9.99996 18.9582C5.05241 18.9582 1.04163 14.9474 1.04163 9.99984ZM9.99996 6.0415C10.3451 6.0415 10.625 6.32133 10.625 6.6665V9.74095L12.5252 11.6412C12.7693 11.8853 12.7693 12.281 12.5252 12.5251C12.2812 12.7692 11.8854 12.7692 11.6414 12.5251L9.55802 10.4418C9.44081 10.3246 9.37496 10.1656 9.37496 9.99984V6.6665C9.37496 6.32133 9.65478 6.0415 9.99996 6.0415Z" fill="#0D1217"/>
</svg>
