<svg width="20" height="20" viewBox="0 0 20 20" fill="none" xmlns="http://www.w3.org/2000/svg">
<g clip-path="url(#clip0_55_1801)">
<path d="M9.99998 6.66683C8.15831 6.66683 6.66665 8.1585 6.66665 10.0002C6.66665 11.8418 8.15831 13.3335 9.99998 13.3335C11.8416 13.3335 13.3333 11.8418 13.3333 10.0002C13.3333 8.1585 11.8416 6.66683 9.99998 6.66683ZM17.45 9.16683C17.2612 7.47693 16.5034 5.90144 15.3011 4.69907C14.0987 3.4967 12.5232 2.73892 10.8333 2.55016V0.833496H9.16665V2.55016C7.47675 2.73892 5.90126 3.4967 4.69889 4.69907C3.49652 5.90144 2.73874 7.47693 2.54998 9.16683H0.833313V10.8335H2.54998C2.73874 12.5234 3.49652 14.0989 4.69889 15.3013C5.90126 16.5036 7.47675 17.2614 9.16665 17.4502V19.1668H10.8333V17.4502C12.5232 17.2614 14.0987 16.5036 15.3011 15.3013C16.5034 14.0989 17.2612 12.5234 17.45 10.8335H19.1666V9.16683H17.45ZM9.99998 15.8335C6.77498 15.8335 4.16665 13.2252 4.16665 10.0002C4.16665 6.77516 6.77498 4.16683 9.99998 4.16683C13.225 4.16683 15.8333 6.77516 15.8333 10.0002C15.8333 13.2252 13.225 15.8335 9.99998 15.8335Z" fill="#101010"/>
</g>
<defs>
<clipPath id="clip0_55_1801">
<rect width="20" height="20" fill="white"/>
</clipPath>
</defs>
</svg>
