<svg width="57" height="57" viewBox="0 0 57 57" fill="none" xmlns="http://www.w3.org/2000/svg">
<path d="M42.75 19C42.75 21.6234 40.6234 23.75 38 23.75C35.3766 23.75 33.25 21.6234 33.25 19C33.25 16.3766 35.3766 14.25 38 14.25C40.6234 14.25 42.75 16.3766 42.75 19Z" fill="#BABDC1"/>
<path fill-rule="evenodd" clip-rule="evenodd" d="M28.3637 2.96875H28.6363C34.1187 2.96872 38.4152 2.9687 41.7675 3.4194C45.1987 3.88072 47.9063 4.8434 50.0314 6.96858C52.1566 9.09375 53.1193 11.8013 53.5806 15.2326C54.0313 18.5848 54.0313 22.8813 54.0312 28.3637V28.5734C54.0313 33.1068 54.0313 36.8179 53.7851 39.8395C53.5376 42.876 53.0306 45.4134 51.8959 47.5207C51.3953 48.4502 50.7803 49.2826 50.0314 50.0314C47.9063 52.1566 45.1987 53.1193 41.7675 53.5806C38.4152 54.0313 34.1187 54.0313 28.6363 54.0312H28.3637C22.8813 54.0313 18.5848 54.0313 15.2326 53.5806C11.8013 53.1193 9.09375 52.1566 6.96858 50.0314C5.08454 48.1474 4.1116 45.8024 3.59421 42.8935C3.08596 40.036 2.99298 36.4807 2.97367 32.066C2.96875 30.9431 2.96875 29.7554 2.96875 28.5024V28.3637C2.96872 22.8813 2.9687 18.5848 3.4194 15.2326C3.88072 11.8013 4.8434 9.09375 6.96858 6.96858C9.09375 4.8434 11.8013 3.88072 15.2326 3.4194C18.5848 2.9687 22.8813 2.96872 28.3637 2.96875ZM15.7072 6.95013C12.671 7.35834 10.8406 8.13471 9.48764 9.48764C8.13471 10.8406 7.35834 12.671 6.95013 15.7072C6.53504 18.7947 6.53125 22.8517 6.53125 28.5C6.53125 29.19 6.53125 29.8572 6.53206 30.5033L8.90976 28.4228C11.074 26.5291 14.3359 26.6377 16.3694 28.6712L26.5575 38.8593C28.1897 40.4915 30.7589 40.7141 32.6475 39.3868L33.3557 38.8891C36.0732 36.9792 39.75 37.2005 42.2189 39.4225L48.9411 45.4726C49.6179 44.0515 50.0197 42.1843 50.2343 39.5502C50.4674 36.6896 50.4688 33.1214 50.4688 28.5C50.4688 22.8517 50.465 18.7947 50.0499 15.7072C49.6417 12.671 48.8653 10.8406 47.5124 9.48764C46.1594 8.13471 44.329 7.35834 41.2928 6.95013C38.2053 6.53504 34.1483 6.53125 28.5 6.53125C22.8517 6.53125 18.7947 6.53504 15.7072 6.95013Z" fill="#BABDC1"/>
</svg>
