<svg width="25" height="24" viewBox="0 0 25 24" fill="none" xmlns="http://www.w3.org/2000/svg">
<path d="M9.625 17.25C9.21079 17.25 8.875 17.5858 8.875 18C8.875 18.4142 9.21079 18.75 9.625 18.75H15.625C16.0392 18.75 16.375 18.4142 16.375 18C16.375 17.5858 16.0392 17.25 15.625 17.25H9.625Z" fill="#ABB7C2"/>
<path fill-rule="evenodd" clip-rule="evenodd" d="M12.625 1.25C11.9169 1.25 11.2735 1.45282 10.5756 1.79224C9.90085 2.12035 9.12142 2.60409 8.14786 3.20832L6.08128 4.4909C5.16009 5.06261 4.42244 5.5204 3.8539 5.95581C3.26515 6.40669 2.81295 6.86589 2.48631 7.46263C2.16035 8.05812 2.01357 8.69174 1.94319 9.4407C1.87499 10.1665 1.87499 11.0541 1.875 12.1672V13.7799C1.87499 15.6837 1.87498 17.1866 2.0277 18.3616C2.18437 19.567 2.51356 20.5401 3.25736 21.3094C4.00458 22.0824 4.95546 22.4277 6.13261 22.5914C7.27349 22.75 8.73056 22.75 10.5668 22.75H14.6831C16.5194 22.75 17.9765 22.75 19.1174 22.5914C20.2945 22.4277 21.2454 22.0824 21.9926 21.3094C22.7364 20.5401 23.0656 19.567 23.2223 18.3616C23.375 17.1866 23.375 15.6838 23.375 13.7799V12.1672C23.375 11.0541 23.375 10.1665 23.3068 9.4407C23.2364 8.69174 23.0896 8.05812 22.7637 7.46263C22.4371 6.86589 21.9849 6.40669 21.3961 5.95581C20.8276 5.5204 20.0899 5.06262 19.1687 4.49091L17.1021 3.20831C16.1286 2.60409 15.3491 2.12034 14.6744 1.79224C13.9765 1.45282 13.3331 1.25 12.625 1.25ZM8.90453 4.50412C9.92029 3.87371 10.6345 3.43153 11.2315 3.1412C11.8132 2.85833 12.2252 2.75 12.625 2.75C13.0248 2.75 13.4368 2.85833 14.0185 3.14119C14.6155 3.43153 15.3297 3.87371 16.3455 4.50412L18.3455 5.74537C19.3063 6.34169 19.9809 6.76135 20.4841 7.1467C20.9737 7.52164 21.2553 7.83106 21.4479 8.18285C21.6412 8.53589 21.754 8.94865 21.8134 9.58104C21.8742 10.2286 21.875 11.0458 21.875 12.2039V13.725C21.875 15.6959 21.8735 17.1012 21.7348 18.1683C21.5986 19.2163 21.342 19.8244 20.9142 20.2669C20.4899 20.7058 19.9121 20.9664 18.9108 21.1057C17.8852 21.2483 16.5325 21.25 14.625 21.25H10.625C8.71747 21.25 7.36483 21.2483 6.33922 21.1057C5.33786 20.9664 4.76014 20.7058 4.33579 20.2669C3.90801 19.8244 3.65142 19.2163 3.51519 18.1683C3.37649 17.1012 3.375 15.6959 3.375 13.725V12.2039C3.375 11.0458 3.37576 10.2286 3.43661 9.58104C3.49603 8.94865 3.60885 8.53589 3.80209 8.18285C3.99465 7.83106 4.27633 7.52164 4.76592 7.1467C5.2691 6.76135 5.94369 6.34169 6.90453 5.74537L8.90453 4.50412Z" fill="#ABB7C2"/>
</svg>
