<svg width="25" height="24" viewBox="0 0 25 24" fill="none" xmlns="http://www.w3.org/2000/svg">
<path fill-rule="evenodd" clip-rule="evenodd" d="M3.1442 7.82274C2.625 8.77128 2.625 9.91549 2.625 12.2039V13.725C2.625 17.6258 2.625 19.5763 3.79657 20.7881C4.96815 22 6.85376 22 10.625 22H14.625C18.3962 22 20.2819 22 21.4534 20.7881C22.625 19.5763 22.625 17.6258 22.625 13.725V12.2039C22.625 9.91549 22.625 8.77128 22.1058 7.82274C21.5866 6.87421 20.6381 6.28551 18.741 5.10812L16.741 3.86687C14.7356 2.62229 13.7329 2 12.625 2C11.5171 2 10.5144 2.62229 8.50903 3.86687L6.50903 5.10813C4.61195 6.28551 3.6634 6.87421 3.1442 7.82274ZM9.625 17.25C9.21079 17.25 8.875 17.5858 8.875 18C8.875 18.4142 9.21079 18.75 9.625 18.75H15.625C16.0392 18.75 16.375 18.4142 16.375 18C16.375 17.5858 16.0392 17.25 15.625 17.25H9.625Z" fill="#F36A26"/>
</svg>
