<svg width="30" height="30" viewBox="0 0 30 30" fill="none" xmlns="http://www.w3.org/2000/svg">
<path fill-rule="evenodd" clip-rule="evenodd" d="M12.4295 4.0625H17.5705C19.8677 4.06248 21.6873 4.06246 23.1113 4.25392C24.5768 4.45095 25.763 4.8661 26.6984 5.80155C27.6339 6.73701 28.049 7.92319 28.2461 9.38872C28.4375 10.8127 28.4375 12.6323 28.4375 14.9295V15.0705C28.4375 17.3677 28.4375 19.1873 28.2461 20.6113C28.049 22.0768 27.6339 23.263 26.6984 24.1984C25.763 25.1339 24.5768 25.549 23.1113 25.7461C21.6873 25.9375 19.8677 25.9375 17.5705 25.9375H12.4295C10.1323 25.9375 8.31274 25.9375 6.88872 25.7461C5.42319 25.549 4.23701 25.1339 3.30155 24.1984C2.3661 23.263 1.95095 22.0768 1.75392 20.6113C1.56246 19.1873 1.56248 17.3677 1.5625 15.0705V14.9295C1.56248 12.6323 1.56246 10.8127 1.75392 9.38872C1.95095 7.92319 2.3661 6.73701 3.30155 5.80155C4.23701 4.8661 5.42319 4.45095 6.88872 4.25392C8.31274 4.06246 10.1323 4.06248 12.4295 4.0625ZM7.13856 6.1122C5.88095 6.28128 5.15639 6.59837 4.62738 7.12738C4.09837 7.65639 3.78128 8.38095 3.6122 9.63856C3.43949 10.9231 3.4375 12.6165 3.4375 15C3.4375 17.3835 3.43949 19.0769 3.6122 20.3614C3.78128 21.6191 4.09837 22.3436 4.62738 22.8726C5.15639 23.4016 5.88095 23.7187 7.13856 23.8878C8.42314 24.0605 10.1165 24.0625 12.5 24.0625H17.5C19.8835 24.0625 21.5769 24.0605 22.8614 23.8878C24.1191 23.7187 24.8436 23.4016 25.3726 22.8726C25.9016 22.3436 26.2187 21.6191 26.3878 20.3614C26.5605 19.0769 26.5625 17.3835 26.5625 15C26.5625 12.6165 26.5605 10.9231 26.3878 9.63856C26.2187 8.38095 25.9016 7.65639 25.3726 7.12738C24.8436 6.59837 24.1191 6.28128 22.8614 6.1122C21.5769 5.93949 19.8835 5.9375 17.5 5.9375H12.5C10.1165 5.9375 8.42314 5.93949 7.13856 6.1122ZM6.77979 9.39983C7.11126 9.00207 7.70241 8.94833 8.10017 9.27979L10.7988 11.5286C11.965 12.5005 12.7747 13.173 13.4582 13.6127C14.1199 14.0382 14.5687 14.1811 15 14.1811C15.4313 14.1811 15.8801 14.0382 16.5418 13.6127C17.2253 13.173 18.035 12.5005 19.2012 11.5286L21.8998 9.27979C22.2976 8.94833 22.8887 9.00207 23.2202 9.39983C23.5517 9.79759 23.4979 10.3887 23.1002 10.7202L20.3546 13.0082C19.2466 13.9315 18.3486 14.6799 17.556 15.1897C16.7304 15.7207 15.9263 16.0561 15 16.0561C14.0737 16.0561 13.2696 15.7207 12.444 15.1897C11.6514 14.6799 10.7534 13.9315 9.64545 13.0082L6.89983 10.7202C6.50207 10.3887 6.44833 9.79759 6.77979 9.39983Z" fill="white"/>
</svg>
