<svg width="25" height="24" viewBox="0 0 25 24" fill="none" xmlns="http://www.w3.org/2000/svg">
<path fill-rule="evenodd" clip-rule="evenodd" d="M8.1376 3.26045C8.25719 2.13044 9.21328 1.25 10.375 1.25H15.375C16.5367 1.25 17.4928 2.13044 17.6124 3.26045C18.3755 3.27599 19.0353 3.31546 19.5986 3.41895C20.3566 3.55818 21.0017 3.82342 21.5267 4.34835C22.1286 4.95027 22.3875 5.70814 22.5085 6.60825C22.625 7.47522 22.625 8.57754 22.625 9.94513V16.0549C22.625 17.4225 22.625 18.5248 22.5085 19.3918C22.3875 20.2919 22.1286 21.0497 21.5267 21.6517C20.9247 22.2536 20.1669 22.5125 19.2668 22.6335C18.3998 22.75 17.2975 22.75 15.9299 22.75H9.82013C8.45254 22.75 7.35022 22.75 6.48325 22.6335C5.58314 22.5125 4.82527 22.2536 4.22335 21.6517C3.62143 21.0497 3.36254 20.2919 3.24152 19.3918C3.12496 18.5248 3.12498 17.4225 3.125 16.0549V9.94513C3.12498 8.57754 3.12496 7.47522 3.24152 6.60825C3.36254 5.70814 3.62143 4.95027 4.22335 4.34835C4.74828 3.82342 5.39335 3.55818 6.15135 3.41895C6.71473 3.31546 7.37452 3.27599 8.1376 3.26045ZM8.13996 4.76087C7.42178 4.7762 6.86836 4.81234 6.42235 4.89426C5.85554 4.99838 5.52746 5.16556 5.28401 5.40901C5.00725 5.68577 4.8268 6.07435 4.72815 6.80812C4.62659 7.56347 4.625 8.56458 4.625 10V16C4.625 17.4354 4.62659 18.4365 4.72815 19.1919C4.8268 19.9257 5.00725 20.3142 5.28401 20.591C5.56077 20.8678 5.94935 21.0482 6.68312 21.1469C7.43847 21.2484 8.43958 21.25 9.875 21.25H15.875C17.3104 21.25 18.3115 21.2484 19.0669 21.1469C19.8007 21.0482 20.1892 20.8678 20.466 20.591C20.7428 20.3142 20.9232 19.9257 21.0219 19.1919C21.1234 18.4365 21.125 17.4354 21.125 16V10C21.125 8.56458 21.1234 7.56347 21.0219 6.80812C20.9232 6.07434 20.7428 5.68577 20.466 5.40901C20.2225 5.16556 19.8945 4.99838 19.3277 4.89426C18.8816 4.81234 18.3282 4.7762 17.61 4.76087C17.4808 5.88062 16.5294 6.75 15.375 6.75H10.375C9.22059 6.75 8.26924 5.88062 8.13996 4.76087ZM10.375 2.75C9.96079 2.75 9.625 3.08579 9.625 3.5V4.5C9.625 4.91421 9.96079 5.25 10.375 5.25H15.375C15.7892 5.25 16.125 4.91421 16.125 4.5V3.5C16.125 3.08579 15.7892 2.75 15.375 2.75H10.375ZM7.125 10.5C7.125 10.0858 7.46079 9.75 7.875 9.75H8.375C8.78921 9.75 9.125 10.0858 9.125 10.5C9.125 10.9142 8.78921 11.25 8.375 11.25H7.875C7.46079 11.25 7.125 10.9142 7.125 10.5ZM10.625 10.5C10.625 10.0858 10.9608 9.75 11.375 9.75H17.875C18.2892 9.75 18.625 10.0858 18.625 10.5C18.625 10.9142 18.2892 11.25 17.875 11.25H11.375C10.9608 11.25 10.625 10.9142 10.625 10.5ZM7.125 14C7.125 13.5858 7.46079 13.25 7.875 13.25H8.375C8.78921 13.25 9.125 13.5858 9.125 14C9.125 14.4142 8.78921 14.75 8.375 14.75H7.875C7.46079 14.75 7.125 14.4142 7.125 14ZM10.625 14C10.625 13.5858 10.9608 13.25 11.375 13.25H17.875C18.2892 13.25 18.625 13.5858 18.625 14C18.625 14.4142 18.2892 14.75 17.875 14.75H11.375C10.9608 14.75 10.625 14.4142 10.625 14ZM7.125 17.5C7.125 17.0858 7.46079 16.75 7.875 16.75H8.375C8.78921 16.75 9.125 17.0858 9.125 17.5C9.125 17.9142 8.78921 18.25 8.375 18.25H7.875C7.46079 18.25 7.125 17.9142 7.125 17.5ZM10.625 17.5C10.625 17.0858 10.9608 16.75 11.375 16.75H17.875C18.2892 16.75 18.625 17.0858 18.625 17.5C18.625 17.9142 18.2892 18.25 17.875 18.25H11.375C10.9608 18.25 10.625 17.9142 10.625 17.5Z" fill="#BABDC1"/>
</svg>
