<svg width="25" height="24" viewBox="0 0 25 24" fill="none" xmlns="http://www.w3.org/2000/svg">
<path d="M10.375 2C9.54657 2 8.875 2.67157 8.875 3.5V4.5C8.875 5.32843 9.54657 6 10.375 6H15.375C16.2034 6 16.875 5.32843 16.875 4.5V3.5C16.875 2.67157 16.2034 2 15.375 2H10.375Z" fill="#FFFFFF"/>
<path fill-rule="evenodd" clip-rule="evenodd" d="M7.375 4.03662C6.11709 4.10719 5.32298 4.30764 4.75368 4.87694C3.875 5.75562 3.875 7.16983 3.875 9.99826V15.9983C3.875 18.8267 3.875 20.2409 4.75368 21.1196C5.63236 21.9983 7.04657 21.9983 9.875 21.9983H15.875C18.7034 21.9983 20.1176 21.9983 20.9963 21.1196C21.875 20.2409 21.875 18.8267 21.875 15.9983V9.99826C21.875 7.16983 21.875 5.75562 20.9963 4.87694C20.427 4.30764 19.6329 4.10719 18.375 4.03662V4.5C18.375 6.15685 17.0319 7.5 15.375 7.5H10.375C8.71815 7.5 7.375 6.15685 7.375 4.5V4.03662ZM7.875 9.75C7.46079 9.75 7.125 10.0858 7.125 10.5C7.125 10.9142 7.46079 11.25 7.875 11.25H8.375C8.78921 11.25 9.125 10.9142 9.125 10.5C9.125 10.0858 8.78921 9.75 8.375 9.75H7.875ZM11.375 9.75C10.9608 9.75 10.625 10.0858 10.625 10.5C10.625 10.9142 10.9608 11.25 11.375 11.25H17.875C18.2892 11.25 18.625 10.9142 18.625 10.5C18.625 10.0858 18.2892 9.75 17.875 9.75H11.375ZM7.875 13.25C7.46079 13.25 7.125 13.5858 7.125 14C7.125 14.4142 7.46079 14.75 7.875 14.75H8.375C8.78921 14.75 9.125 14.4142 9.125 14C9.125 13.5858 8.78921 13.25 8.375 13.25H7.875ZM11.375 13.25C10.9608 13.25 10.625 13.5858 10.625 14C10.625 14.4142 10.9608 14.75 11.375 14.75H17.875C18.2892 14.75 18.625 14.4142 18.625 14C18.625 13.5858 18.2892 13.25 17.875 13.25H11.375ZM7.875 16.75C7.46079 16.75 7.125 17.0858 7.125 17.5C7.125 17.9142 7.46079 18.25 7.875 18.25H8.375C8.78921 18.25 9.125 17.9142 9.125 17.5C9.125 17.0858 8.78921 16.75 8.375 16.75H7.875ZM11.375 16.75C10.9608 16.75 10.625 17.0858 10.625 17.5C10.625 17.9142 10.9608 18.25 11.375 18.25H17.875C18.2892 18.25 18.625 17.9142 18.625 17.5C18.625 17.0858 18.2892 16.75 17.875 16.75H11.375Z" fill="#FFFFFF"/>
</svg>
