<svg width="18" height="19" viewBox="0 0 18 19" fill="none" xmlns="http://www.w3.org/2000/svg">
<path fill-rule="evenodd" clip-rule="evenodd" d="M2.4375 8.10747C2.4375 4.4332 5.36626 1.4375 9 1.4375C12.6337 1.4375 15.5625 4.4332 15.5625 8.10747C15.5625 9.88129 15.057 11.7859 14.1633 13.4314C13.2708 15.0748 11.9667 16.5029 10.3354 17.2654C9.48793 17.6615 8.51207 17.6615 7.66462 17.2654C6.03328 16.5029 4.72921 15.0748 3.83667 13.4314C2.94302 11.7859 2.4375 9.88129 2.4375 8.10747ZM9 2.5625C6.00632 2.5625 3.5625 5.03561 3.5625 8.10747C3.5625 9.68027 4.01448 11.4016 4.82528 12.8945C5.63718 14.3894 6.78452 15.6122 8.14098 16.2462C8.68654 16.5012 9.31346 16.5012 9.85902 16.2462C11.2155 15.6122 12.3628 14.3894 13.1747 12.8945C13.9855 11.4016 14.4375 9.68027 14.4375 8.10747C14.4375 5.03561 11.9937 2.5625 9 2.5625ZM9 6.3125C8.06802 6.3125 7.3125 7.06802 7.3125 8C7.3125 8.93198 8.06802 9.6875 9 9.6875C9.93198 9.6875 10.6875 8.93198 10.6875 8C10.6875 7.06802 9.93198 6.3125 9 6.3125ZM6.1875 8C6.1875 6.4467 7.4467 5.1875 9 5.1875C10.5533 5.1875 11.8125 6.4467 11.8125 8C11.8125 9.5533 10.5533 10.8125 9 10.8125C7.4467 10.8125 6.1875 9.5533 6.1875 8Z" fill="#0D1217"/>
</svg>
