<svg width="14" height="15" viewBox="0 0 14 15" fill="none" xmlns="http://www.w3.org/2000/svg">
<path d="M6.65013 11.0939L6.65014 11.0939L10.9644 6.77961C10.3772 6.53522 9.68177 6.13379 9.02405 5.47607C8.36622 4.81824 7.96477 4.12268 7.72039 3.53545L3.40606 7.84978L3.40604 7.8498C3.06938 8.18646 2.90104 8.3548 2.75627 8.54041C2.58549 8.75936 2.43908 8.99627 2.31961 9.24693C2.21834 9.45943 2.14306 9.68528 1.99249 10.137L1.19851 12.5189C1.12441 12.7412 1.18227 12.9863 1.34795 13.152C1.51363 13.3177 1.7587 13.3755 1.98099 13.3014L4.36294 12.5074C4.81463 12.3569 5.04049 12.2816 5.25298 12.1803C5.50365 12.0608 5.74056 11.9144 5.95951 11.7436C6.14512 11.5989 6.31347 11.4305 6.65013 11.0939Z" fill="#FFFFFF"/>
<path d="M12.1615 5.58245C13.0574 4.68663 13.0574 3.2342 12.1615 2.33837C11.2657 1.44255 9.81329 1.44255 8.91747 2.33837L8.40003 2.85581C8.40711 2.87721 8.41446 2.8989 8.42208 2.92088C8.61174 3.46754 8.96959 4.18417 9.64277 4.85735C10.3159 5.53052 11.0326 5.88837 11.5792 6.07803C11.6011 6.08562 11.6227 6.09294 11.644 6.09999L12.1615 5.58245Z" fill="#FFFFFF"/>
</svg>
