<svg width="26" height="26" viewBox="0 0 26 26" fill="none" xmlns="http://www.w3.org/2000/svg">
<path fill-rule="evenodd" clip-rule="evenodd" d="M6.21057 2.21313C7.52935 0.901843 9.70075 1.13525 10.805 2.6103L12.1711 4.43507C13.0696 5.63528 12.9903 7.31272 11.9237 8.37322L11.6651 8.63041C11.6538 8.66323 11.6264 8.76638 11.6568 8.96241C11.7253 9.40386 12.0939 10.3403 13.6415 11.8791C15.1885 13.4173 16.1316 13.7856 16.5793 13.8542C16.7822 13.8854 16.8883 13.8564 16.9212 13.8449L17.3632 13.4054C18.3113 12.4627 19.7683 12.2864 20.9422 12.9246L23.0119 14.0497C24.7842 15.0131 25.2319 17.4222 23.7799 18.8659L22.241 20.3961C21.7561 20.8782 21.104 21.2803 20.3083 21.3545C18.3485 21.5371 13.7788 21.304 8.97731 16.5298C4.49456 12.0725 3.63433 8.18555 3.52549 6.2704L4.33668 6.2243L3.52549 6.2704C3.47045 5.30199 3.92807 4.48267 4.51017 3.90388L6.21057 2.21313ZM9.50415 3.58416C8.9553 2.85102 7.93233 2.79273 7.35634 3.36545L5.65594 5.05619C5.29853 5.41158 5.12656 5.80324 5.14787 6.1782C5.23435 7.69985 5.92909 11.2073 10.1231 15.3775C14.523 19.7524 18.5868 19.8829 20.1574 19.7365C20.4784 19.7066 20.7975 19.5398 21.0952 19.2438L22.6341 17.7136C23.2597 17.0916 23.1217 15.959 22.2358 15.4774L20.1661 14.3523C19.5945 14.0416 18.925 14.1441 18.5089 14.5577L18.0155 15.0483L17.4427 14.4722C18.0155 15.0483 18.0148 15.0491 18.014 15.0499L18.0124 15.0514L18.0091 15.0547L18.0021 15.0614L17.9862 15.0762C17.9748 15.0866 17.9618 15.098 17.9471 15.1102C17.9176 15.1345 17.8815 15.1621 17.8382 15.1911C17.7515 15.2492 17.6369 15.3124 17.493 15.366C17.1996 15.4753 16.8126 15.534 16.3329 15.4605C15.3939 15.3164 14.15 14.6762 12.4957 13.0314C10.842 11.3871 10.1964 10.1489 10.051 9.21153C9.97664 8.7322 10.036 8.34513 10.1466 8.05148C10.2008 7.90757 10.2647 7.79314 10.3234 7.70659C10.3526 7.66343 10.3804 7.62734 10.405 7.59803C10.4173 7.58338 10.4288 7.5704 10.4392 7.55906L10.4541 7.54325L10.4609 7.53626L10.4641 7.53298L10.4657 7.5314C10.4665 7.53062 10.4673 7.52985 11.0401 8.10601L10.4673 7.52985L10.778 7.2209C11.2423 6.75922 11.3073 5.99281 10.8702 5.40893L9.50415 3.58416Z" fill="#0D1217"/>
</svg>
