<svg width="40" height="39" viewBox="0 0 40 39" fill="none" xmlns="http://www.w3.org/2000/svg">
<rect x="0.625069" y="0.125122" width="38.7499" height="38.7498" rx="19.3749" fill="#323150"/>
<path d="M21.9004 11.4309C21.9258 11.3357 21.9698 11.2465 22.0298 11.1683C22.0897 11.0901 22.1645 11.0245 22.2498 10.9752C22.3351 10.9259 22.4293 10.8939 22.527 10.8811C22.6247 10.8682 22.724 10.8747 22.8191 10.9002C24.2095 11.263 25.4781 11.9898 26.4941 13.0059C27.5102 14.022 28.237 15.2905 28.5998 16.6809C28.6253 16.776 28.6318 16.8753 28.6189 16.973C28.6061 17.0707 28.5741 17.1649 28.5248 17.2502C28.4755 17.3355 28.4099 17.4103 28.3317 17.4702C28.2536 17.5302 28.1643 17.5742 28.0691 17.5996C28.0058 17.6163 27.9406 17.6248 27.8751 17.6249C27.7099 17.625 27.5494 17.5705 27.4183 17.47C27.2873 17.3695 27.1931 17.2285 27.1504 17.069C26.8547 15.9338 26.2615 14.898 25.4321 14.0685C24.6027 13.2389 23.5671 12.6456 22.432 12.3496C22.3367 12.3243 22.2474 12.2804 22.1691 12.2205C22.0908 12.1605 22.0251 12.0858 21.9757 12.0005C21.9263 11.9151 21.8943 11.8209 21.8813 11.7232C21.8684 11.6254 21.8749 11.5261 21.9004 11.4309ZM21.682 15.3496C22.9748 15.6946 23.8054 16.5262 24.1504 17.819C24.1931 17.9785 24.2873 18.1195 24.4183 18.22C24.5494 18.3205 24.7099 18.375 24.8751 18.3749C24.9406 18.3748 25.0058 18.3663 25.0691 18.3496C25.1643 18.3242 25.2536 18.2802 25.3317 18.2202C25.4099 18.1603 25.4755 18.0855 25.5248 18.0002C25.5741 17.9149 25.6061 17.8207 25.6189 17.723C25.6318 17.6253 25.6253 17.526 25.5998 17.4309C25.1198 15.6346 23.8654 14.3802 22.0691 13.9002C21.8769 13.8489 21.6722 13.876 21.5 13.9756C21.3278 14.0752 21.2022 14.2391 21.1509 14.4313C21.0995 14.6235 21.1266 14.8283 21.2262 15.0005C21.3258 15.1727 21.4898 15.2983 21.682 15.3496ZM28.4723 22.7306L24.0557 20.7515L24.0435 20.7459C23.8142 20.6478 23.5641 20.6084 23.3158 20.6314C23.0675 20.6543 22.8288 20.7387 22.6213 20.8771C22.5969 20.8933 22.5734 20.9108 22.551 20.9296L20.2691 22.8749C18.8235 22.1727 17.331 20.6915 16.6288 19.2646L18.577 16.9481C18.5957 16.9246 18.6135 16.9012 18.6304 16.8759C18.7658 16.669 18.8479 16.4318 18.8695 16.1855C18.8911 15.9391 18.8515 15.6913 18.7541 15.464V15.4527L16.7695 11.0287C16.6408 10.7317 16.4195 10.4844 16.1387 10.3235C15.8579 10.1627 15.5326 10.097 15.2113 10.1362C13.941 10.3033 12.7749 10.9272 11.931 11.8913C11.087 12.8553 10.6228 14.0936 10.6251 15.3749C10.6251 22.8187 16.6813 28.8749 24.1251 28.8749C25.4064 28.8772 26.6447 28.413 27.6087 27.5691C28.5728 26.7251 29.1967 25.559 29.3638 24.2887C29.4031 23.9676 29.3375 23.6423 29.1769 23.3615C29.0162 23.0807 28.769 22.8594 28.4723 22.7306Z" fill="white"/>
</svg>
