<svg width="30" height="30" viewBox="0 0 30 30" fill="none" xmlns="http://www.w3.org/2000/svg">
<path fill-rule="evenodd" clip-rule="evenodd" d="M5.89712 3.86512C7.42985 2.25145 9.96512 2.55378 11.2321 4.34575L12.8083 6.57511C13.8218 8.00844 13.7362 10.0012 12.5267 11.2745L12.2206 11.5967C12.2198 11.599 12.2189 11.6014 12.2179 11.604C12.2018 11.6494 12.1609 11.7942 12.2011 12.0688C12.2846 12.6383 12.7241 13.7954 14.5087 15.6742C16.2989 17.5589 17.3847 18.0031 17.8879 18.0848C18.105 18.1201 18.2185 18.0895 18.2547 18.0767L18.7655 17.5389C19.8577 16.3891 21.5607 16.1625 22.9338 16.9528L25.3219 18.3274C27.363 19.5023 27.8381 22.3763 26.2069 24.0936L24.4312 25.9631C23.877 26.5466 23.1213 27.0446 22.1875 27.1368C19.9076 27.3618 14.6262 27.0687 9.08951 21.2396C3.92305 15.8003 2.94158 11.0692 2.81751 8.75763L3.65013 8.71294L2.81751 8.75763C2.75621 7.61554 3.26531 6.63593 3.93512 5.93074L5.89712 3.86512ZM9.70113 5.42821C9.06069 4.5224 7.91014 4.46835 7.2566 5.15641L5.2946 7.22203C4.88036 7.65814 4.66302 8.15801 4.68981 8.65714C4.79111 10.5444 5.60383 14.8473 10.449 19.9483C15.5292 25.2968 20.2095 25.4479 22.0033 25.2709C22.358 25.2359 22.7229 25.039 23.0717 24.6718L24.8474 22.8024C25.6134 21.9959 25.4126 20.5431 24.3865 19.9525L21.9984 18.5779C21.3575 18.209 20.6068 18.323 20.125 18.8302L19.5557 19.4296L18.8967 18.8037C19.5557 19.4296 19.5548 19.4305 19.5539 19.4314L19.5522 19.4333L19.5485 19.4371L19.5405 19.4452L19.5226 19.4629C19.5097 19.4753 19.4949 19.489 19.4781 19.5038C19.4445 19.5332 19.4029 19.5668 19.3529 19.6023C19.2528 19.6733 19.1194 19.7514 18.9508 19.8179C18.6058 19.954 18.1502 20.027 17.5873 19.9356C16.4904 19.7575 15.0528 18.9696 13.1492 16.9655C11.24 14.9555 10.5093 13.4558 10.3459 12.3407C10.2628 11.7731 10.3293 11.3186 10.4515 10.9754C10.5115 10.8066 10.5824 10.672 10.6478 10.5698C10.6804 10.5189 10.7115 10.4762 10.739 10.4415C10.7527 10.4241 10.7656 10.4087 10.7773 10.3953L10.7939 10.3765L10.8016 10.3683L10.8052 10.3644L10.807 10.3625C10.8078 10.3616 10.8087 10.3607 11.4733 10.9919L10.8087 10.3607L11.1672 9.98321C11.7241 9.39688 11.805 8.4039 11.2774 7.65757L9.70113 5.42821Z" fill="white"/>
<path d="M16.5744 2.35003C16.6571 1.83892 17.1403 1.4922 17.6514 1.57495C17.683 1.58101 17.7848 1.60003 17.8382 1.61191C17.9448 1.63566 18.0936 1.67224 18.2791 1.72627C18.6501 1.83432 19.1683 2.01233 19.7904 2.2975C21.0357 2.86844 22.693 3.8672 24.4127 5.58695C26.1325 7.3067 27.1312 8.96396 27.7022 10.2093C27.9873 10.8313 28.1653 11.3496 28.2734 11.7206C28.3274 11.9061 28.364 12.0549 28.3878 12.1615C28.3996 12.2148 28.4083 12.2577 28.4144 12.2893L28.4216 12.3283C28.5043 12.8394 28.1607 13.3426 27.6496 13.4253C27.14 13.5078 26.6599 13.1628 26.5751 12.6541C26.5725 12.6404 26.5653 12.6037 26.5576 12.5691C26.5422 12.4999 26.5155 12.3901 26.4732 12.2449C26.3886 11.9545 26.2417 11.5228 25.9978 10.9907C25.5105 9.92784 24.6342 8.4601 23.0869 6.91277C21.5396 5.36545 20.0718 4.4892 19.009 4.00191C18.4769 3.75797 18.0452 3.61105 17.7548 3.52646C17.6096 3.48417 17.4271 3.44228 17.3579 3.42686C16.8491 3.34209 16.4918 2.85969 16.5744 2.35003Z" fill="white"/>
<path fill-rule="evenodd" clip-rule="evenodd" d="M16.8576 6.662C16.9998 6.16416 17.5187 5.87588 18.0166 6.01812L17.759 6.91955C18.0166 6.01812 18.017 6.01825 18.0175 6.01838L18.0184 6.01864L18.0203 6.01919L18.0245 6.02041L18.0342 6.0233L18.0589 6.03101C18.0777 6.03704 18.1013 6.04489 18.1293 6.05484C18.1855 6.07476 18.2597 6.1031 18.3507 6.1421C18.5328 6.22014 18.7816 6.34067 19.0873 6.52156C19.6991 6.88366 20.5343 7.48513 21.5155 8.46635C22.4967 9.44756 23.0982 10.2828 23.4603 10.8946C23.6412 11.2003 23.7617 11.4491 23.8398 11.6312C23.8788 11.7222 23.9071 11.7964 23.927 11.8525C23.937 11.8806 23.9448 11.9041 23.9509 11.923L23.9586 11.9477L23.9615 11.9574L23.9627 11.9616L23.9632 11.9635L23.9635 11.9644C23.9636 11.9649 23.9638 11.9653 23.0623 12.2229L23.9638 11.9653C24.106 12.4631 23.8177 12.982 23.3199 13.1243C22.8263 13.2653 22.312 12.9831 22.1646 12.493L22.16 12.4796C22.1533 12.4608 22.1395 12.4238 22.1164 12.3698C22.0701 12.2619 21.9863 12.0853 21.8467 11.8496C21.568 11.3787 21.0647 10.6671 20.1897 9.79217C19.3148 8.91723 18.6032 8.41385 18.1323 8.13514C17.8965 7.99562 17.72 7.91175 17.6121 7.8655C17.5581 7.84235 17.5211 7.82856 17.5023 7.8219L17.4888 7.81728C16.9988 7.66993 16.7166 7.15562 16.8576 6.662Z" fill="white"/>
</svg>
