<svg width="26" height="26" viewBox="0 0 26 26" fill="none" xmlns="http://www.w3.org/2000/svg">
<path fill-rule="evenodd" clip-rule="evenodd" d="M22.048 11.3979L20.1885 16.9763C18.8774 20.9095 18.2219 22.8761 17.2606 23.4349C16.3461 23.9666 15.2167 23.9666 14.3022 23.4349C13.3409 22.8761 12.6854 20.9095 11.3743 16.9763C11.1638 16.3448 11.0585 16.029 10.8818 15.7651C10.7106 15.5093 10.4909 15.2896 10.2351 15.1183C9.97116 14.9416 9.65539 14.8364 9.02386 14.6259C5.09067 13.3148 3.12408 12.6593 2.56523 11.698C2.03359 10.7835 2.03359 9.65404 2.56523 8.73956C3.12408 7.77827 5.09068 7.12274 9.02386 5.81167L14.6023 3.95219C19.4756 2.32778 21.9122 1.51557 23.1984 2.80178C24.4846 4.08798 23.6724 6.52461 22.048 11.3979ZM14.1327 11.811C13.8171 11.492 13.82 10.9775 14.139 10.662L18.7004 6.15086C19.0195 5.83532 19.5339 5.83818 19.8495 6.15723C20.165 6.47628 20.1622 6.99072 19.8431 7.30626L15.2817 11.8174C14.9626 12.1329 14.4482 12.1301 14.1327 11.811Z" fill="white"/>
</svg>
