<svg width="20" height="20" viewBox="0 0 20 20" fill="none" xmlns="http://www.w3.org/2000/svg">
<path fill-rule="evenodd" clip-rule="evenodd" d="M10.0001 2.29199C5.74289 2.29199 2.29175 5.74313 2.29175 10.0003C2.29175 14.2575 5.74289 17.7087 10.0001 17.7087C14.2573 17.7087 17.7084 14.2575 17.7084 10.0003C17.7084 5.74313 14.2573 2.29199 10.0001 2.29199ZM1.04175 10.0003C1.04175 5.05277 5.05253 1.04199 10.0001 1.04199C14.9476 1.04199 18.9584 5.05277 18.9584 10.0003C18.9584 14.9479 14.9476 18.9587 10.0001 18.9587C5.05253 18.9587 1.04175 14.9479 1.04175 10.0003ZM10.0001 6.45866C9.48231 6.45866 9.06258 6.87839 9.06258 7.39616C9.06258 7.74134 8.78276 8.02116 8.43758 8.02116C8.0924 8.02116 7.81258 7.74134 7.81258 7.39616C7.81258 6.18804 8.79196 5.20866 10.0001 5.20866C11.2082 5.20866 12.1876 6.18804 12.1876 7.39616C12.1876 8.19894 11.7548 8.89997 11.1128 9.2798C10.9488 9.3768 10.8135 9.48272 10.7253 9.58663C10.6397 9.68752 10.6251 9.75333 10.6251 9.79199V10.8337C10.6251 11.1788 10.3453 11.4587 10.0001 11.4587C9.6549 11.4587 9.37508 11.1788 9.37508 10.8337V9.79199C9.37508 9.37042 9.55964 9.02836 9.77224 8.77783C9.98227 8.53034 10.2442 8.34133 10.4763 8.20398C10.7538 8.03982 10.9376 7.73912 10.9376 7.39616C10.9376 6.87839 10.5178 6.45866 10.0001 6.45866ZM10.0001 14.167C10.4603 14.167 10.8334 13.7939 10.8334 13.3337C10.8334 12.8734 10.4603 12.5003 10.0001 12.5003C9.53984 12.5003 9.16675 12.8734 9.16675 13.3337C9.16675 13.7939 9.53984 14.167 10.0001 14.167Z" fill="#0D1217"/>
</svg>
