<svg width="24" height="24" viewBox="0 0 24 24" fill="none" xmlns="http://www.w3.org/2000/svg">
<path fill-rule="evenodd" clip-rule="evenodd" d="M19.832 12.3113C20.056 12.1124 20.056 11.7625 19.832 11.5636L12.5879 5.12911C12.2654 4.84266 11.7558 5.07159 11.7558 5.50293L11.7558 7.93757C11.7558 8.21371 11.532 8.43757 11.2558 8.43757L5.00576 8.43757C4.72962 8.43757 4.50576 8.66143 4.50576 8.93757L4.50576 14.9376C4.50576 15.2137 4.72962 15.4376 5.00576 15.4376L11.2558 15.4376C11.532 15.4376 11.7558 15.6614 11.7558 15.9376L11.7558 18.3719C11.7558 18.8033 12.2654 19.0322 12.5879 18.7458L19.832 12.3113L20.1641 12.6851L19.832 12.3113ZM20.4961 10.816C21.168 11.4127 21.168 12.4622 20.4961 13.0589L13.252 19.4934C12.2845 20.3528 10.7558 19.666 10.7558 18.3719L10.7558 16.4376L5.00576 16.4376C4.17733 16.4376 3.50576 15.766 3.50576 14.9376L3.50576 8.93757C3.50576 8.10914 4.17734 7.43757 5.00576 7.43757L10.7558 7.43757L10.7558 5.50293C10.7558 4.20892 12.2845 3.52211 13.252 4.38145L20.4961 10.816Z" fill="white"/>
</svg>
