<svg width="20" height="20" viewBox="0 0 20 20" fill="none" xmlns="http://www.w3.org/2000/svg">
<path d="M11.5539 4.81955C11.2925 4.79252 10.9542 4.79175 10.4402 4.79175H10.0003C9.65516 4.79175 9.37534 4.51193 9.37534 4.16675C9.37534 3.82157 9.65516 3.54175 10.0003 3.54175H10.471H10.471C10.946 3.54173 11.3492 3.54172 11.6825 3.57618C12.0373 3.61287 12.3653 3.69253 12.6751 3.88401C12.9849 4.07548 13.2028 4.33317 13.3943 4.63414C13.5632 4.89952 13.7324 5.23366 13.9283 5.62508L14.8905 5.62508C15.1271 5.62506 15.3442 5.62505 15.5252 5.6413C15.7208 5.65887 15.9339 5.69923 16.1403 5.81707C16.3666 5.94632 16.5541 6.13385 16.6833 6.36015C16.8012 6.56648 16.8415 6.77966 16.8591 6.97523C16.8754 7.15618 16.8754 7.37336 16.8753 7.60987V7.6099V7.63402L16.8754 7.6878C16.8759 7.90427 16.8765 8.13604 16.8062 8.356C16.7591 8.50335 16.6889 8.64226 16.5982 8.76754C16.4628 8.95458 16.2759 9.09162 16.1013 9.21961L16.0579 9.25144L15.8266 9.42183L16.2326 10.2336C17.7701 10.4295 18.9587 11.7427 18.9587 13.3334C18.9587 15.0593 17.5596 16.4584 15.8337 16.4584C14.3218 16.4584 13.0607 15.3848 12.7712 13.9584H8.47949C8.18995 15.3848 6.92885 16.4584 5.41701 16.4584C3.90252 16.4584 2.63967 15.3811 2.35302 13.951C1.65343 13.8801 1.10192 13.3186 1.0465 12.6145C1.04192 12.5564 1.04196 12.4934 1.042 12.4328L1.04201 12.4167L1.042 12.385C1.04199 12.1058 1.04198 11.9283 1.05421 11.7728C1.20697 9.83178 2.7487 8.29005 4.68977 8.13728C4.84517 8.12505 5.02271 8.12506 5.30191 8.12508L5.33367 8.12508L5.877 8.12508H5.87701C6.62574 8.12506 7.25009 8.12504 7.74574 8.19168C8.2689 8.26201 8.74123 8.41674 9.12079 8.7963C9.50035 9.17585 9.65507 9.64819 9.72541 10.1713C9.79205 10.667 9.79203 11.2914 9.79201 12.0401L9.792 12.7084H12.7712C12.998 11.5909 13.8213 10.6899 14.8942 10.3521L12.8626 6.28888C12.6328 5.82914 12.4808 5.52692 12.3397 5.30518C12.2064 5.09566 12.1109 5.00476 12.0179 4.94732C11.925 4.88988 11.801 4.84509 11.5539 4.81955Z" fill="#BABDC1"/>
</svg>
