<svg width="24" height="24" viewBox="0 0 24 24" fill="none" xmlns="http://www.w3.org/2000/svg">
<path fill-rule="evenodd" clip-rule="evenodd" d="M10.5 2.75C5.66751 2.75 1.75 6.66751 1.75 11.5C1.75 16.3325 5.66751 20.25 10.5 20.25C15.3325 20.25 19.25 16.3325 19.25 11.5C19.25 6.66751 15.3325 2.75 10.5 2.75ZM0.25 11.5C0.25 5.83908 4.83908 1.25 10.5 1.25C16.1609 1.25 20.75 5.83908 20.75 11.5C20.75 14.0605 19.8111 16.4017 18.2589 18.1982L21.5303 21.4697C21.8232 21.7626 21.8232 22.2374 21.5303 22.5303C21.2374 22.8232 20.7626 22.8232 20.4697 22.5303L17.1982 19.2589C15.4017 20.8111 13.0605 21.75 10.5 21.75C4.83908 21.75 0.25 17.1609 0.25 11.5Z" fill="#BABDC1"/>
</svg>
