<svg width="20" height="20" viewBox="0 0 20 20" fill="none" xmlns="http://www.w3.org/2000/svg">
<path d="M3.14867 3.04578C2.9978 3.34653 2.9236 3.71752 2.7752 4.45952L2.27693 6.95086C1.96144 8.52833 3.16799 10.0001 4.7767 10.0001C6.08639 10.0001 7.183 9.00766 7.31332 7.70447L7.37083 7.12937C7.23492 8.66992 8.44918 10.0001 10.0002 10.0001C11.5619 10.0001 12.7821 8.65175 12.6267 7.09789L12.6875 7.70447C12.8178 9.00766 13.9144 10.0001 15.2241 10.0001C16.8328 10.0001 18.0394 8.52833 17.7239 6.95086L17.2256 4.45952C17.0772 3.71754 17.003 3.34652 16.8522 3.04578C16.5343 2.41208 15.9623 1.94314 15.2785 1.7557C14.954 1.66675 14.5757 1.66675 13.819 1.66675H12.0836H6.18183C5.42514 1.66675 5.0468 1.66675 4.72231 1.7557C4.03856 1.94314 3.46656 2.41208 3.14867 3.04578Z" fill="#F36A26"/>
<path d="M15.2241 11.2501C15.905 11.2501 16.5376 11.0731 17.0837 10.7659V11.6668C17.0837 14.8095 17.0837 16.3808 16.1073 17.3571C15.3214 18.143 14.15 18.2963 12.0837 18.3262V15.4168C12.0837 14.6379 12.0837 14.2485 11.9162 13.9585C11.8065 13.7684 11.6487 13.6106 11.4587 13.5009C11.1686 13.3335 10.7792 13.3335 10.0003 13.3335C9.22148 13.3335 8.83206 13.3335 8.54199 13.5009C8.35197 13.6106 8.19417 13.7684 8.08446 13.9585C7.91699 14.2485 7.91699 14.6379 7.91699 15.4168V18.3262C5.85069 18.2963 4.67921 18.143 3.8933 17.3571C2.91699 16.3808 2.91699 14.8095 2.91699 11.6668V10.7659C3.46302 11.0731 4.09565 11.2501 4.77663 11.2501C5.77419 11.2501 6.6888 10.8638 7.37061 10.2267C8.06006 10.8602 8.98073 11.2501 10.0002 11.2501C11.0197 11.2501 11.9404 10.8601 12.6299 10.2266C13.3117 10.8637 14.2264 11.2501 15.2241 11.2501Z" fill="#F36A26"/>
</svg>
