<svg width="20" height="20" viewBox="0 0 20 20" fill="none" xmlns="http://www.w3.org/2000/svg">
<path d="M7.6276 4.50682C8.68314 2.61327 9.21091 1.6665 9.99996 1.6665C10.789 1.6665 11.3168 2.61327 12.3723 4.50682L12.6454 4.9967C12.9454 5.53478 13.0953 5.80383 13.3292 5.98134C13.563 6.15886 13.8542 6.22475 14.4367 6.35654L14.967 6.47653C17.0167 6.9403 18.0416 7.17219 18.2854 7.95628C18.5293 8.74037 17.8306 9.5574 16.4332 11.1914L16.0717 11.6142C15.6746 12.0785 15.4761 12.3107 15.3867 12.5979C15.2974 12.8852 15.3274 13.1949 15.3875 13.8145L15.4421 14.3785C15.6534 16.5587 15.759 17.6488 15.1207 18.1334C14.4823 18.6179 13.5227 18.1761 11.6036 17.2925L11.1071 17.0639C10.5617 16.8128 10.289 16.6872 9.99996 16.6872C9.71091 16.6872 9.43823 16.8128 8.89286 17.0639L8.39635 17.2925C6.47719 18.1761 5.51761 18.6179 4.87925 18.1334C4.24089 17.6488 4.34653 16.5587 4.55779 14.3785L4.61245 13.8145C4.67248 13.1949 4.7025 12.8852 4.61318 12.5979C4.52386 12.3107 4.32531 12.0785 3.92822 11.6142L3.56671 11.1914C2.16933 9.5574 1.47065 8.74037 1.71448 7.95628C1.95831 7.17219 2.98317 6.9403 5.03291 6.47653L5.5632 6.35654C6.14567 6.22475 6.4369 6.15886 6.67075 5.98134C6.90459 5.80383 7.05456 5.53478 7.35451 4.9967L7.6276 4.50682Z" fill="#FFC700"/>
</svg>
