<svg width="25" height="24" viewBox="0 0 25 24" fill="none" xmlns="http://www.w3.org/2000/svg">
<path d="M19.125 12C19.125 12.5523 18.6773 13 18.125 13C17.5727 13 17.125 12.5523 17.125 12C17.125 11.4477 17.5727 11 18.125 11C18.6773 11 19.125 11.4477 19.125 12Z" fill="#ABB7C2"/>
<path fill-rule="evenodd" clip-rule="evenodd" d="M10.0686 3.25H13.1814C15.0192 3.24998 16.4748 3.24997 17.614 3.40314C18.7864 3.56076 19.7354 3.89288 20.4838 4.64124C21.4081 5.56563 21.7027 6.80363 21.8097 8.41008C22.3869 8.6641 22.8228 9.2013 22.8708 9.88179C22.8751 9.94199 22.875 10.0069 22.875 10.067C22.875 10.0725 22.875 10.0779 22.875 10.0833V13.9167C22.875 13.9221 22.875 13.9275 22.875 13.933C22.875 13.9931 22.8751 14.058 22.8708 14.1182C22.8228 14.7987 22.3869 15.3359 21.8097 15.5899C21.7027 17.1964 21.4081 18.4344 20.4838 19.3588C19.7354 20.1071 18.7864 20.4392 17.614 20.5969C16.4748 20.75 15.0192 20.75 13.1814 20.75H10.0686C8.23083 20.75 6.77519 20.75 5.63598 20.5969C4.46356 20.4392 3.51461 20.1071 2.76624 19.3588C2.01788 18.6104 1.68576 17.6614 1.52814 16.489C1.37497 15.3498 1.37498 13.8942 1.375 12.0564V11.9436C1.37498 10.1058 1.37497 8.65019 1.52814 7.51098C1.68576 6.33856 2.01788 5.38961 2.76624 4.64124C3.51461 3.89288 4.46356 3.56076 5.63598 3.40314C6.77519 3.24997 8.23082 3.24998 10.0686 3.25ZM20.2929 15.75H18.3558C16.2106 15.75 14.375 14.1224 14.375 12C14.375 9.87756 16.2106 8.25 18.3558 8.25H20.2929C20.1791 6.90855 19.9216 6.20043 19.4231 5.7019C18.9999 5.27869 18.4202 5.02502 17.4142 4.88976C16.3865 4.75159 15.0318 4.75 13.125 4.75H10.125C8.21818 4.75 6.86351 4.75159 5.83585 4.88976C4.82976 5.02502 4.25011 5.27869 3.8269 5.7019C3.40369 6.12511 3.15002 6.70476 3.01476 7.71085C2.87659 8.73851 2.875 10.0932 2.875 12C2.875 13.9068 2.87659 15.2615 3.01476 16.2892C3.15002 17.2952 3.40369 17.8749 3.8269 18.2981C4.25011 18.7213 4.82976 18.975 5.83585 19.1102C6.86351 19.2484 8.21818 19.25 10.125 19.25H13.125C15.0318 19.25 16.3865 19.2484 17.4142 19.1102C18.4202 18.975 18.9999 18.7213 19.4231 18.2981C19.9216 17.7996 20.1791 17.0915 20.2929 15.75ZM5.375 8C5.375 7.58579 5.71079 7.25 6.125 7.25H10.125C10.5392 7.25 10.875 7.58579 10.875 8C10.875 8.41421 10.5392 8.75 10.125 8.75H6.125C5.71079 8.75 5.375 8.41421 5.375 8ZM21.0485 9.75023C21.0282 9.75001 21.0016 9.75 20.9583 9.75H18.3558C16.9324 9.75 15.875 10.8087 15.875 12C15.875 13.1913 16.9324 14.25 18.3558 14.25H20.9583C21.0016 14.25 21.0282 14.25 21.0485 14.2498C21.061 14.2496 21.0676 14.2495 21.0707 14.2493L21.0729 14.2492C21.2791 14.2367 21.3677 14.0976 21.3745 14.0139C21.3745 14.0139 21.3747 14.0076 21.3748 13.9986C21.375 13.9808 21.375 13.9572 21.375 13.9167V10.0833C21.375 10.0428 21.375 10.0192 21.3748 10.0014C21.3747 9.99238 21.3745 9.98609 21.3745 9.98609C21.3677 9.90242 21.2791 9.7633 21.0729 9.75076C21.0729 9.75076 21.068 9.75043 21.0485 9.75023Z" fill="#ABB7C2"/>
</svg>
