<svg width="25" height="24" viewBox="0 0 25 24" fill="none" xmlns="http://www.w3.org/2000/svg">
<path fill-rule="evenodd" clip-rule="evenodd" d="M21.2259 8.00353C21.1692 7.99996 21.1075 7.99998 21.0436 8L21.0276 8.00001H18.5191C16.4514 8.00001 14.6822 9.62757 14.6822 11.75C14.6822 13.8724 16.4514 15.5 18.5191 15.5H21.0276L21.0436 15.5C21.1075 15.5 21.1692 15.5001 21.2259 15.4965C22.0658 15.4434 22.8085 14.7862 22.871 13.8682C22.8751 13.808 22.875 13.7431 22.875 13.683L22.875 13.6667V9.83334L22.875 9.81702C22.875 9.75688 22.8751 9.69199 22.871 9.6318C22.8085 8.71381 22.0658 8.05657 21.2259 8.00353ZM18.2967 12.75C18.829 12.75 19.2605 12.3023 19.2605 11.75C19.2605 11.1977 18.829 10.75 18.2967 10.75C17.7644 10.75 17.3328 11.1977 17.3328 11.75C17.3328 12.3023 17.7644 12.75 18.2967 12.75Z" fill="#F36A26"/>
<path fill-rule="evenodd" clip-rule="evenodd" d="M21.0429 17C21.192 16.9961 21.3049 17.1342 21.2644 17.2778C21.0637 17.9902 20.745 18.5975 20.2338 19.1088C19.4854 19.8571 18.5364 20.1892 17.364 20.3469C16.2248 20.5 14.7692 20.5 12.9314 20.5H10.8186C8.98083 20.5 7.52519 20.5 6.38598 20.3469C5.21356 20.1892 4.26461 19.8571 3.51624 19.1088C2.76788 18.3604 2.43576 17.4114 2.27814 16.239C2.12497 15.0998 2.12498 13.6442 2.125 11.8064V11.6936C2.12498 9.85583 2.12497 8.40019 2.27814 7.26098C2.43576 6.08856 2.76788 5.13961 3.51624 4.39124C4.26461 3.64288 5.21356 3.31076 6.38598 3.15314C7.52519 2.99997 8.98082 2.99998 10.8186 3L12.9314 3C14.7692 2.99998 16.2248 2.99997 17.364 3.15314C18.5364 3.31076 19.4854 3.64288 20.2338 4.39124C20.745 4.90252 21.0636 5.50974 21.2644 6.22218C21.3049 6.36575 21.192 6.50387 21.0429 6.5L18.519 6.50001C15.6824 6.50001 13.1821 8.74091 13.1821 11.75C13.1821 14.7591 15.6824 17 18.519 17L21.0429 17ZM5.875 7C5.46079 7 5.125 7.33579 5.125 7.75C5.125 8.16421 5.46079 8.5 5.875 8.5H9.875C10.2892 8.5 10.625 8.16421 10.625 7.75C10.625 7.33579 10.2892 7 9.875 7H5.875Z" fill="#F36A26"/>
</svg>
