<svg width="24" height="25" viewBox="0 0 24 25" fill="none" xmlns="http://www.w3.org/2000/svg">
<path d="M22.2 18.1335L14.0016 3.89569C13.7967 3.54687 13.5042 3.25764 13.1532 3.05668C12.8021 2.85572 12.4046 2.75 12 2.75C11.5955 2.75 11.198 2.85572 10.8469 3.05668C10.4958 3.25764 10.2033 3.54687 9.99847 3.89569L1.80003 18.1335C1.60291 18.4709 1.49902 18.8546 1.49902 19.2454C1.49902 19.6361 1.60291 20.0199 1.80003 20.3572C2.00228 20.7082 2.29425 20.999 2.64599 21.1998C2.99773 21.4006 3.39658 21.5043 3.80159 21.5001H20.1985C20.6032 21.5039 21.0016 21.4001 21.353 21.1993C21.7044 20.9985 21.9961 20.7079 22.1982 20.3572C22.3956 20.02 22.4998 19.6364 22.5001 19.2456C22.5004 18.8549 22.3969 18.4711 22.2 18.1335ZM20.8997 19.6063C20.8282 19.7282 20.7256 19.8289 20.6024 19.8981C20.4792 19.9673 20.3398 20.0025 20.1985 20.0001H3.80159C3.66029 20.0025 3.52088 19.9673 3.39765 19.8981C3.27442 19.8289 3.17181 19.7282 3.10034 19.6063C3.0356 19.4967 3.00145 19.3717 3.00145 19.2444C3.00145 19.1171 3.0356 18.9922 3.10034 18.8826L11.2988 4.64475C11.3717 4.52341 11.4748 4.42301 11.598 4.3533C11.7212 4.2836 11.8603 4.24696 12.0019 4.24696C12.1435 4.24696 12.2826 4.2836 12.4058 4.3533C12.529 4.42301 12.6321 4.52341 12.705 4.64475L20.9035 18.8826C20.9676 18.9925 21.0011 19.1176 21.0005 19.2449C20.9998 19.3722 20.965 19.497 20.8997 19.6063ZM11.25 14.0001V10.2501C11.25 10.0511 11.329 9.86038 11.4697 9.71973C11.6104 9.57908 11.8011 9.50006 12 9.50006C12.1989 9.50006 12.3897 9.57908 12.5304 9.71973C12.671 9.86038 12.75 10.0511 12.75 10.2501V14.0001C12.75 14.199 12.671 14.3897 12.5304 14.5304C12.3897 14.671 12.1989 14.7501 12 14.7501C11.8011 14.7501 11.6104 14.671 11.4697 14.5304C11.329 14.3897 11.25 14.199 11.25 14.0001ZM13.125 17.3751C13.125 17.5976 13.059 17.8151 12.9354 18.0001C12.8118 18.1851 12.6361 18.3293 12.4305 18.4144C12.225 18.4996 11.9988 18.5219 11.7806 18.4784C11.5623 18.435 11.3619 18.3279 11.2045 18.1706C11.0472 18.0132 10.9401 17.8128 10.8966 17.5945C10.8532 17.3763 10.8755 17.1501 10.9607 16.9445C11.0458 16.739 11.19 16.5633 11.375 16.4397C11.56 16.316 11.7775 16.2501 12 16.2501C12.2984 16.2501 12.5845 16.3686 12.7955 16.5796C13.0065 16.7905 13.125 17.0767 13.125 17.3751Z" fill="#FF3B30"/>
</svg>
